/* XPM */
static char * bat_ch_xpm[] = {
"14 16 5 1",
" 	c None",
".	c #1D1F21",
"+	c #C5C8C6",
"@	c #373B41",
"#	c #F0C674",
"..............",
"..............",
".......+++....",
"......+@++....",
".....+@@@+###.",
"....+++@++....",
".+++++++++....",
".+++++++++....",
"....+++@++....",
".....+@@@+###.",
"......+@++....",
".......+++....",
"..............",
"..............",
"..............",
".............."};
