/* XPM */
static char * bat_1_xpm[] = {
"14 16 4 1",
" 	c None",
".	c #1D1F21",
"+	c #C5C8C6",
"@	c #A54242",
".....++++.....",
".....++++.....",
"...++++++++...",
"...+......+...",
"...+......+...",
"...+......+...",
"...+......+...",
"...+......+...",
"...+......+...",
"...+......+...",
"...+@@@@@@+...",
"...+@@@@@@+...",
"...+@@@@@@+...",
"...++++++++...",
"..............",
".............."};
