/* XPM */
static char * bat_0_xpm[] = {
"14 16 5 1",
" 	c None",
".	c #1D1F21",
"+	c #C5C8C6",
"@	c #FFFFFF",
"#	c #A54242",
".....++++.....",
".....++++.....",
"...++++++++...",
"...+@@@@@@+...",
"...+@@@@@@+...",
"...+@@@@@@+...",
"...+@@@@@@+...",
"...+@@@@@@+...",
"...+@@@@@@+...",
"...+@@@@@@+...",
"...+@@@@@@+...",
"...+######+...",
"...+######+...",
"...++++++++...",
"..............",
".............."};
