/* XPM */
static char * bat_7_xpm[] = {
"14 16 4 1",
" 	c None",
".	c #1D1F21",
"+	c #C5C8C6",
"@	c #656565",
".....++++.....",
".....++++.....",
"...++++++++...",
"...+......+...",
"...+@@@@@@+...",
"...+@@@@@@+...",
"...+@@@@@@+...",
"...+@@@@@@+...",
"...+@@@@@@+...",
"...+@@@@@@+...",
"...+@@@@@@+...",
"...+@@@@@@+...",
"...+@@@@@@+...",
"...++++++++...",
"..............",
".............."};
