/* XPM */
static char * date_xpm[] = {
"13 16 4 1",
" 	c None",
".	c #1D1F21",
"+	c #C5C8C6",
"@	c #656565",
"...+.....+...",
".+++++++++++.",
"+..+.....+..+",
"+...........+",
"+++++++++++++",
"+..@..@..@..+",
"+..@..@..@..+",
"+..@..@..@..+",
"+@@@@@@@@@@@+",
"+..@..@..@..+",
"+..@..@..@..+",
"+..@..@..@..+",
".+++++++++++.",
".............",
".............",
"............."};
