/* XPM */
static char * headphones_xpm[] = {
"19 16 3 1",
" 	c #1D1F21",
".	c #C5C8C6",
"+	c #656565",
"                   ",
"      .......      ",
"     .       .     ",
"    .         .    ",
"    .         .    ",
"    .         .    ",
"  ....       ....  ",
" .+++.       .+++. ",
" .+++.       .+++. ",
" .+++.       .+++. ",
" .+++.       .+++. ",
" .+++.       .+++. ",
"  ....  ..   ....  ",
"          .....    ",
"                   ",
"                   "};
