/* XPM */
static char * mem_xpm[] = {
"15 16 3 1",
" 	c None",
".	c #1D1F21",
"+	c #C5C8C6",
"...............",
".+.+.+.+.+.+.+.",
".+.+.+.+.+.+.+.",
"+++++++++++++++",
"+.............+",
"+.+++++.+++++.+",
"+.+...+.+...+.+",
"+.+...+.+...+.+",
"+.+++++.+++++.+",
"+.............+",
"+++++++++++++++",
".+.+.+.+.+.+.+.",
".+.+.+.+.+.+.+.",
"...............",
"...............",
"..............."};
