/* XPM */
static char * mpd_xpm[] = {
"14 16 3 1",
" 	c None",
".	c #FFFFFF",
"+	c #000000",
".....+++......",
".....+++++....",
".....+..+++++.",
".....+....+++.",
".....+......+.",
".....+......+.",
".....+......+.",
".....+......+.",
"..++.+......+.",
".+++++......+.",
".++++....++.+.",
"..++....+++++.",
"........++++..",
".........++...",
"..............",
".............."};
