/* XPM */
static char * notification_xpm[] = {
"13 16 2 1",
" 	c #1D1F21",
".	c #C5C8C6",
"             ",
".............",
".............",
"..         ..",
".............",
"..         ..",
".............",
"..         ..",
".............",
".............",
"  ....       ",
"  ...        ",
"  ..         ",
"             ",
"             ",
"             "};
