/* XPM */
static char * stop_xpm[] = {
"14 16 3 1",
" 	c None",
".	c #1D1F21",
"+	c #C5C8C6",
"..............",
"..............",
"..............",
"...++++++++...",
"...++++++++...",
"...++++++++...",
"...++++++++...",
"...++++++++...",
"...++++++++...",
"...++++++++...",
"...++++++++...",
"..............",
"..............",
"..............",
"..............",
".............."};
