/* XPM */
static char * 土_xpm[] = {
"14 14 33 1",
" 	c None",
".	c #FFFFFF",
"+	c #FFFDD6",
"@	c #A2523A",
"#	c #458DCA",
"$	c #F4FFFF",
"%	c #F6D09A",
"&	c #582D14",
"*	c #141414",
"=	c #131410",
"-	c #0C0503",
";	c #030A0F",
">	c #131314",
",	c #1B4074",
"'	c #B8E4FF",
")	c #FFFCF8",
"!	c #F4F2F1",
"~	c #F2F2F2",
"{	c #F2EEC9",
"]	c #974C35",
"^	c #4084BD",
"/	c #E6F2F2",
"(	c #F2F4F6",
"_	c #FBFDFF",
":	c #FFDBAB",
"<	c #5C2B07",
"[	c #070707",
"}	c #070705",
"|	c #040000",
"1	c #000305",
"2	c #060707",
"3	c #16407D",
"4	c #BFEBFF",
"..............",
".....+@#$.....",
".....+@#$.....",
".....+@#$.....",
".%&**=-;>**,'.",
".)!~~{]^/~~(_.",
".....+@#$.....",
".....+@#$.....",
".....+@#$.....",
".....+@#$.....",
".....+@#$.....",
":<[[[}|12[[[34",
"..............",
".............."};
