/* XPM */
static char * 日_xpm[] = {
"14 16 33 1",
" 	c #FFFFFF",
".	c #EFCA94",
"+	c #63453B",
"@	c #3B3834",
"#	c #313131",
"$	c #333232",
"%	c #3E6195",
"&	c #CBF0FF",
"*	c #E8BB75",
"=	c #41395E",
"-	c #9BC7DE",
";	c #E2E2E2",
">	c #E2E2E0",
",	c #CAA064",
"'	c #3D4577",
")	c #BCEAFF",
"!	c #444474",
"~	c #BAE8FF",
"{	c #EABD79",
"]	c #484877",
"^	c #370E03",
"/	c #07090A",
"(	c #0A0A0A",
"_	c #090703",
":	c #103977",
"<	c #06090A",
"[	c #090603",
"}	c #F6EAD7",
"|	c #CCCCD9",
"1	c #ECF7FF",
"2	c #F8EDDB",
"3	c #CECDD8",
"4	c #EBF7FF",
"              ",
"              ",
"  .+@#####$%& ",
"  *=-;;;;>,') ",
"  *!~     {]) ",
"  *!~     {]) ",
"  *!~     {]) ",
"  *^/(((((_:) ",
"  *!~     {]) ",
"  *!~     {]) ",
"  *!~     {]) ",
"  *!~     {]) ",
"  *^<((((([:) ",
"  }|1     234 ",
"              ",
"              "};
