/* XPM */
static char * 月_xpm[] = {
"14 16 61 1",
" 	c #FFFFFF",
".	c #FFE2B3",
"+	c #68300B",
"@	c #080C10",
"#	c #111111",
"$	c #100D09",
"%	c #082C60",
"&	c #AEDFFF",
"*	c #684448",
"=	c #84C4EF",
"-	c #F5CB90",
";	c #4C4560",
">	c #68310D",
",	c #0C1217",
"'	c #181818",
")	c #17130D",
"!	c #0A2D60",
"~	c #FFE2B2",
"{	c #664348",
"]	c #FFDEAD",
"^	c #5F2E0F",
"/	c #18222A",
"(	c #2B2B2B",
"_	c #2B241B",
":	c #123060",
"<	c #FCD6A1",
"[	c #523E49",
"}	c #90C4E9",
"|	c #EEEEEE",
"1	c #EEEEED",
"2	c #E1B981",
"3	c #444160",
"4	c #EEC281",
"5	c #464268",
"6	c #B3E2FF",
"7	c #FFFFF6",
"8	c #CE944D",
"9	c #3D529C",
"0	c #D3FAFF",
"a	c #FCE3B2",
"b	c #6E362D",
"c	c #539AD2",
"d	c #F7FFFF",
"e	c #FBF3EA",
"f	c #E5E6EB",
"g	c #F1F5F8",
"h	c #ECC387",
"i	c #474161",
"j	c #FFFFF7",
"k	c #D19852",
"l	c #2F3C76",
"m	c #B9E6FE",
"n	c #F5CF97",
"o	c #512205",
"p	c #020000",
"q	c #000006",
"r	c #225495",
"s	c #CEF2FF",
"t	c #FFF6F0",
"u	c #E9EFF4",
"v	c #FDFFFF",
"              ",
"  .+@####$%&  ",
"  .*=    -;&  ",
"  .*=    -;&  ",
"  .>,'''')!&  ",
"  .*=    -;&  ",
"  ~{=    -;&  ",
"  ]^/((((_:&  ",
"  <[}|||123&  ",
"  456    -;&  ",
" 7890    -;&  ",
" abcd efghi&  ",
"jklm  nopqrs  ",
" tuv          ",
"              ",
"              "};
