/* XPM */
static char * 木_xpm[] = {
"14 16 77 1",
" 	c None",
".	c #FFFFFF",
"+	c #FFFFDB",
"@	c #A85740",
"#	c #4991CC",
"$	c #F5FFFF",
"%	c #FFFEFC",
"&	c #F9F8F7",
"*	c #F7F7F7",
"=	c #F7F7D3",
"-	c #A2543D",
";	c #458BC4",
">	c #EDF7F7",
",	c #F7F8FA",
"'	c #FDFEFF",
")	c #FEDAA9",
"!	c #5E2F0E",
"~	c #0E0E0E",
"{	c #0E0E0D",
"]	c #0E0B09",
"^	c #030000",
"/	c #000004",
"(	c #060A0B",
"_	c #1A417A",
":	c #BDE8FF",
"<	c #FFFFFE",
"[	c #E6B672",
"}	c #340B00",
"|	c #04245A",
"1	c #9FD6F7",
"2	c #FFF1C9",
"3	c #8D592F",
"4	c #231421",
"5	c #1F302F",
"6	c #41629B",
"7	c #D4F4FF",
"8	c #FFFDEE",
"9	c #C4894E",
"0	c #415F7D",
"a	c #805040",
"b	c #4986A1",
"c	c #926040",
"d	c #4E84BE",
"e	c #E9FBFF",
"f	c #FFFFF5",
"g	c #D7A060",
"h	c #31325E",
"i	c #A1D8D2",
"j	c #F0E1B2",
"k	c #713D26",
"l	c #3F74B0",
"m	c #DEF7FF",
"n	c #FFFCEF",
"o	c #CD995C",
"p	c #2E2749",
"q	c #86C1EA",
"r	c #FCFFDB",
"s	c #F7DDAD",
"t	c #6F381B",
"u	c #254B83",
"v	c #B6DEF3",
"w	c #FDFFFF",
"x	c #F5EAC7",
"y	c #965E2F",
"z	c #17224C",
"A	c #89C1E9",
"B	c #FAFFFF",
"C	c #FBEBC7",
"D	c #925727",
"E	c #11285C",
"F	c #A2D8F9",
"G	c #FEF1D0",
"H	c #A78B8F",
"I	c #AFD8F4",
"J	c #FEFFFF",
"K	c #FFFAEE",
"L	c #E5E2EC",
"..............",
".....+@#$.....",
".....+@#$.....",
"%&***=-;>***,'",
")!~~{]^/(~~~_:",
"....<[}|1.....",
"....234567....",
"...890abcde...",
"..fghi@#jklm..",
".nopqr@#$stuvw",
"xyzAB+@#$.CDEF",
"GHIJ.+@#$..KL$",
".....+@#$.....",
"..............",
"..............",
".............."};
