/* XPM */
static char * 水_xpm[] = {
"14 16 98 2",
"  	c None",
". 	c #FFFFFF",
"+ 	c #EEC280",
"@ 	c #4B4974",
"# 	c #BAE8FF",
"$ 	c #4B4972",
"% 	c #B9E7FF",
"& 	c #FFFDED",
"* 	c #D7C5C5",
"= 	c #D5ECFB",
"- 	c #FFFFFE",
"; 	c #FBF7F3",
"> 	c #F2F1F2",
", 	c #F2F2F2",
"' 	c #F4F7FB",
") 	c #ECC280",
"! 	c #3E314F",
"~ 	c #9AD2F9",
"{ 	c #FFFFF8",
"] 	c #DBA664",
"^ 	c #2A142E",
"/ 	c #68ADDF",
"( 	c #FBFFFF",
"_ 	c #FFFFF1",
": 	c #CA9255",
"< 	c #2E1B1B",
"[ 	c #1B1B1B",
"} 	c #1C1712",
"| 	c #0F3164",
"1 	c #9DA27F",
"2 	c #3D1626",
"3 	c #5CA6D4",
"4 	c #DEB476",
"5 	c #3D1F2C",
"6 	c #5B9AD0",
"7 	c #F1FEFF",
"8 	c #545486",
"9 	c #B3B280",
"0 	c #401406",
"a 	c #142029",
"b 	c #232539",
"c 	c #69A7D8",
"d 	c #F4FEFF",
"e 	c #FFFFF0",
"f 	c #C58550",
"g 	c #4E77BC",
"h 	c #D8C280",
"i 	c #4B3D3F",
"j 	c #49353B",
"k 	c #549AD2",
"l 	c #F7FFFF",
"m 	c #FDE1B0",
"n 	c #6B4349",
"o 	c #80C1ED",
"p 	c #4B496F",
"q 	c #999569",
"r 	c #3A3765",
"s 	c #A7DBF8",
"t 	c #C3874B",
"u 	c #3E5C9F",
"v 	c #D6F8FF",
"w 	c #BAE3E0",
"x 	c #AF6D37",
"y 	c #223D76",
"z 	c #B5E2FA",
"A 	c #DDAA6A",
"B 	c #38325B",
"C 	c #9DD4F6",
"D 	c #FEF1D0",
"E 	c #985928",
"F 	c #183062",
"G 	c #9FD0F0",
"H 	c #FCFFFF",
"I 	c #FFFEF2",
"J 	c #D4A266",
"K 	c #342139",
"L 	c #70B0E0",
"M 	c #FAFFFF",
"N 	c #FEF3D5",
"O 	c #A46733",
"P 	c #131033",
"Q 	c #6AAEDE",
"R 	c #FFF5D9",
"S 	c #A87865",
"T 	c #7CACDB",
"U 	c #F7FFFE",
"V 	c #F8F1EA",
"W 	c #EAEDF3",
"X 	c #E1B675",
"Y 	c #454574",
"Z 	c #FFFCF0",
"` 	c #DBCCC9",
" .	c #D9ECFC",
"..	c #E2B46C",
"+.	c #360E04",
"@.	c #02030A",
"#.	c #2A5D9F",
"$.	c #D4F6FF",
". . . . . . . . . . . . . . ",
". . . . . . + @ # . . . . . ",
". . . . . . + @ # . . . . . ",
". . . . . . + $ % . & * = . ",
"- ; > , , ' ) ! ~ { ] ^ / ( ",
"_ : < [ } | 1 2 3 4 5 6 7 . ",
". . . . + 8 9 0 a b c d . . ",
". . . e f g h i j k l . . . ",
". . . m n o + p q r s . . . ",
". . & t u v + @ w x y z . . ",
". { A B C . + @ # D E F G H ",
"I J K L M . + @ # . N O P Q ",
"R S T U V W X Y # . . Z `  .",
". . . . ..+.@.#.$.. . . . . ",
". . . . . . . . . . . . . . ",
". . . . . . . . . . . . . . "};
