/* XPM */
static char * ç«_xpm[] = {
"14 16 103 2",
"  	c None",
". 	c #FFFFFF",
"+ 	c #FFE8BA",
"@ 	c #744242",
"# 	c #71B8E7",
"$ 	c #FFF4E8",
"% 	c #D5D3D8",
"& 	c #EAF6FD",
"* 	c #FFE7B9",
"= 	c #734141",
"- 	c #70B8E6",
"; 	c #F4D2A4",
"> 	c #7A7792",
", 	c #C5E8FC",
"' 	c #EEC281",
") 	c #423A5B",
"! 	c #A7DAFD",
"~ 	c #FFE3B3",
"{ 	c #693635",
"] 	c #64B0E0",
"^ 	c #FFFDE1",
"/ 	c #B06A34",
"( 	c #2A5197",
"_ 	c #D0F5FF",
": 	c #FFFFEE",
"< 	c #C28143",
"[ 	c #3859A3",
"} 	c #D8FAFF",
"| 	c #FED9A6",
"1 	c #57231B",
"2 	c #4993CD",
"3 	c #F6FFFF",
"4 	c #EFC789",
"5 	c #482F45",
"6 	c #85C4EE",
"7 	c #FEFFFF",
"8 	c #FCDEAC",
"9 	c #653434",
"0 	c #63AADD",
"a 	c #FCFFFF",
"b 	c #421609",
"c 	c #295DA4",
"d 	c #D8EECD",
"e 	c #925132",
"f 	c #427BBB",
"g 	c #E8FDFF",
"h 	c #FFFFFA",
"i 	c #D9A45F",
"j 	c #3F4A86",
"k 	c #C4EFFF",
"l 	c #FFFFF6",
"m 	c #CE9454",
"n 	c #4B4B62",
"o 	c #4C4E5A",
"p 	c #97C3D1",
"q 	c #C1B8C2",
"r 	c #DBF1FD",
"s 	c #FFFEFA",
"t 	c #F8F7FA",
"u 	c #FFF1C8",
"v 	c #8A4D44",
"w 	c #64ABC6",
"x 	c #B77542",
"y 	c #3B66A9",
"z 	c #DDFAFF",
"A 	c #FFFFF9",
"B 	c #DAA561",
"C 	c #3B457C",
"D 	c #BEEAFF",
"E 	c #FADFAC",
"F 	c #69372E",
"G 	c #5595CD",
"H 	c #F1FDFF",
"I 	c #E8BE86",
"J 	c #4A2D3D",
"K 	c #73B5E3",
"L 	c #FFFFFC",
"M 	c #ECC58B",
"N 	c #4B2323",
"O 	c #4983B9",
"P 	c #E2F6FE",
"Q 	c #FFFFFD",
"R 	c #F5E4C6",
"S 	c #9D6A3D",
"T 	c #1D1934",
"U 	c #69A7D8",
"V 	c #F5FFFF",
"W 	c #FFFFFB",
"X 	c #EDCA96",
"Y 	c #5A2911",
"Z 	c #132E54",
"` 	c #86B3DB",
" .	c #F2FEFF",
"..	c #FBDFAC",
"+.	c #68321A",
"@.	c #2B5386",
"#.	c #B4DBF1",
"$.	c #FBEED0",
"%.	c #A67C71",
"&.	c #85B4DF",
"*.	c #F9FFFF",
"=.	c #FFFFFE",
"-.	c #FEFDFE",
". . . . . . . . . . . . . . ",
". . . . . + @ # . . . . . . ",
". . . . . + @ # . . . . . . ",
". . $ % & * = - . . ; > , . ",
". . ' ) ! ~ { ] . ^ / ( _ . ",
". : < [ } | 1 2 3 4 5 6 7 . ",
". 8 9 0 a ' b c d e f g . . ",
"h i j k l m n o p q r . . . ",
". s t a u v w x y z . . . . ",
". . . A B C D E F G H . . . ",
". . A I J K a L M N O P . . ",
"Q R S T U V . . W X Y Z `  .",
"..+.@.#.a . . . . . $.%.&.*.",
"=.-.7 . . . . . . . . . . . ",
". . . . . . . . . . . . . . ",
". . . . . . . . . . . . . . "};
