/* XPM */
static char * 金_xpm[] = {
"14 16 126 2",
"  	c #FFFFFF",
". 	c #F7D49C",
"+ 	c #552104",
"@ 	c #164385",
"# 	c #C2ECFD",
"$ 	c #FFFADD",
"% 	c #A96431",
"& 	c #2D4159",
"* 	c #4C301B",
"= 	c #326DB0",
"- 	c #E1FBFF",
"; 	c #FFFFF7",
"> 	c #D8A25F",
", 	c #2C264E",
"' 	c #92CDF0",
") 	c #ECC387",
"! 	c #461F22",
"~ 	c #4F8FC9",
"{ 	c #EEFDFF",
"] 	c #FFFFFA",
"^ 	c #E8BD83",
"/ 	c #441F25",
"( 	c #5497D0",
"_ 	c #F3FFFF",
": 	c #FFFFF5",
"< 	c #D7A160",
"[ 	c #291121",
"} 	c #4F8CC3",
"| 	c #EAFAFF",
"1 	c #FFFEF4",
"2 	c #D8A96D",
"3 	c #38120D",
"4 	c #285B93",
"5 	c #C0D8E0",
"6 	c #E3E6E8",
"7 	c #E8E6E2",
"8 	c #E0DCD0",
"9 	c #B18048",
"0 	c #1C070E",
"a 	c #2E5E98",
"b 	c #C8EAF9",
"c 	c #F9EACB",
"d 	c #9F6B3D",
"e 	c #1F1A35",
"f 	c #5D767A",
"g 	c #634E3B",
"h 	c #38342A",
"i 	c #1F0F0B",
"j 	c #0D1D28",
"k 	c #303334",
"l 	c #373F59",
"m 	c #768F87",
"n 	c #663815",
"o 	c #0E295F",
"p 	c #A2D7F7",
"q 	c #FBE7C8",
"r 	c #A89DAB",
"s 	c #CAE8F8",
"t 	c #FFFFDE",
"u 	c #AD5F44",
"v 	c #4C91CC",
"w 	c #F5FFFF",
"x 	c #FFFAEE",
"y 	c #E4DFE6",
"z 	c #F1FDFF",
"A 	c #DFB169",
"B 	c #391610",
"C 	c #0F0C0F",
"D 	c #0F1313",
"E 	c #141412",
"F 	c #0E0604",
"G 	c #040B10",
"H 	c #131414",
"I 	c #100F0D",
"J 	c #0F1013",
"K 	c #13234B",
"L 	c #86C4EC",
"M 	c #FDF0DA",
"N 	c #B8ADAE",
"O 	c #CFE7FD",
"P 	c #F9DCB8",
"Q 	c #9393A8",
"R 	c #D3EFFD",
"S 	c #FFF1C7",
"T 	c #894735",
"U 	c #4F94CE",
"V 	c #F5FFDE",
"W 	c #F5FFF5",
"X 	c #CE934D",
"Y 	c #35498D",
"Z 	c #CAF2FF",
"` 	c #FFFFF8",
" .	c #D39B53",
"..	c #354383",
"+.	c #C3EFDE",
"@.	c #F4E4B4",
"#.	c #6F3C37",
"$.	c #63A8DC",
"%.	c #FAFFFF",
"&.	c #FFF8F0",
"*.	c #E5E1DE",
"=.	c #E1E0DA",
"-.	c #D0B8A0",
";.	c #8A8FA0",
">.	c #BFD1BE",
",.	c #935039",
"'.	c #407BAC",
").	c #CAC1A4",
"!.	c #857C88",
"~.	c #A9C3D7",
"{.	c #DCDFDE",
"].	c #DCDEE5",
"^.	c #F1FAFF",
"/.	c #FEE2B9",
"(.	c #7B5336",
"_.	c #343436",
":.	c #363939",
"<.	c #3C3B3A",
"[.	c #383636",
"}.	c #353736",
"|.	c #373536",
"1.	c #343635",
"2.	c #373637",
"3.	c #353634",
"4.	c #426595",
"5.	c #CBEEFF",
"                            ",
"          . + @ #           ",
"        $ % & * = -         ",
"      ; > , ' ) ! ~ {       ",
"    ] ^ / ( _ : < [ } |     ",
"  1 2 3 4 5 6 7 8 9 0 a b   ",
"c d e f g h i j k l m n o p ",
"q r s     t u v w     x y z ",
"  A B C D E F G H I J K L   ",
"    M N O t u v w P Q R     ",
"    S T U V u v W X Y Z     ",
"    `  ...+.u v @.#.$.%.    ",
"&.*.=.-.;.>.,.'.).!.~.{.].^.",
"/.(._.:.<.[.}.|.1.2.3._.4.5.",
"                            ",
"                            "};
